<svg id="Background" xmlns="http://www.w3.org/2000/svg" viewBox="0 0 293.06 343.83"><defs><style>.cls-1{fill:none;stroke:#82c66c;stroke-miterlimit:10;stroke-width:0.5px;}</style></defs><title>Frame</title><path class="cls-1" d="M160.31,476.47" transform="translate(-133.89 -159.28)"/><path class="cls-1" d="M159.32,184c.53-1.2,1.05-2.41,1.57-3.61" transform="translate(-133.89 -159.28)"/><line class="cls-1" x1="30.61" y1="25.64" x2="32.47" y2="21.92"/><line class="cls-1" x1="37.44" y1="25.45" x2="38.52" y2="22.68"/><line class="cls-1" x1="45.38" y1="25.45" x2="46.2" y2="23.01"/><line class="cls-1" x1="52.48" y1="25.45" x2="53.16" y2="23.9"/><line class="cls-1" x1="58.12" y1="25.45" x2="58.8" y2="24.23"/><line class="cls-1" x1="65.37" y1="25.61" x2="65.82" y2="24.55"/><path class="cls-1" d="M199.52,196.2" transform="translate(-133.89 -159.28)"/><line class="cls-1" x1="70.11" y1="24.63" x2="69.64" y2="25.58"/><line class="cls-1" x1="76.71" y1="24.77" x2="76.41" y2="25.27"/><line class="cls-1" x1="83.42" y1="24.77" x2="82.77" y2="25.38"/><line class="cls-1" x1="89.59" y1="24.53" x2="88.76" y2="25.25"/><line class="cls-1" x1="95.59" y1="25.02" x2="96.6" y2="24.2"/><line class="cls-1" x1="101.7" y1="25.11" x2="103.04" y2="23.67"/><line class="cls-1" x1="107.35" y1="25.15" x2="108.41" y2="23.47"/><line class="cls-1" x1="111.3" y1="25.06" x2="112.77" y2="23.16"/><line class="cls-1" x1="116.81" y1="24.74" x2="118.39" y2="22.76"/><line class="cls-1" x1="122.32" y1="24.74" x2="123.89" y2="22.47"/><line class="cls-1" x1="127.22" y1="24.7" x2="129.32" y2="22.06"/><line class="cls-1" x1="131.09" y1="24.7" x2="133.64" y2="21.7"/><line class="cls-1" x1="137.46" y1="24.5" x2="140.73" y2="20.97"/><line class="cls-1" x1="143.51" y1="24.39" x2="146.86" y2="20.38"/><line class="cls-1" x1="149.12" y1="24.33" x2="152.14" y2="20.56"/><line class="cls-1" x1="154.88" y1="24.33" x2="158.09" y2="21.01"/><line class="cls-1" x1="159.11" y1="24.21" x2="161.85" y2="21.25"/><line class="cls-1" x1="164.72" y1="24.21" x2="167.11" y2="21.69"/><line class="cls-1" x1="172.27" y1="24.16" x2="174.19" y2="22.11"/><line class="cls-1" x1="178.34" y1="24.03" x2="179.79" y2="22.45"/><line class="cls-1" x1="185.74" y1="23.88" x2="187.12" y2="22.27"/><line class="cls-1" x1="194.06" y1="23.71" x2="195.63" y2="22.09"/><line class="cls-1" x1="198.79" y1="23.64" x2="200.55" y2="21.7"/><line class="cls-1" x1="205.47" y1="23.51" x2="208.13" y2="21.03"/><line class="cls-1" x1="211.76" y1="23.47" x2="214.99" y2="20.32"/><line class="cls-1" x1="218.1" y1="23.47" x2="221.94" y2="19.9"/><line class="cls-1" x1="225.07" y1="23.42" x2="229.57" y2="19.49"/><line class="cls-1" x1="233.53" y1="23.29" x2="237.89" y2="19.09"/><line class="cls-1" x1="242.08" y1="22.97" x2="246.23" y2="19.13"/><line class="cls-1" x1="248.61" y1="22.91" x2="253.22" y2="19.18"/><line class="cls-1" x1="256.01" y1="22.47" x2="259.57" y2="19.16"/><line class="cls-1" x1="31.08" y1="27.51" x2="36.44" y2="31.89"/><line class="cls-1" x1="35.83" y1="27.67" x2="39.49" y2="31.75"/><line class="cls-1" x1="41.04" y1="27.78" x2="45.59" y2="31.51"/><line class="cls-1" x1="47.81" y1="27.55" x2="51.36" y2="31.3"/><line class="cls-1" x1="52.34" y1="27.17" x2="57.21" y2="31.68"/><line class="cls-1" x1="58.23" y1="27.1" x2="63.11" y2="31.74"/><line class="cls-1" x1="62.95" y1="26.82" x2="67.68" y2="31.74"/><line class="cls-1" x1="69.54" y1="26.82" x2="74.14" y2="31.57"/><line class="cls-1" x1="76.62" y1="26.67" x2="81.91" y2="31.74"/><line class="cls-1" x1="82.01" y1="26.99" x2="86.53" y2="31.57"/><line class="cls-1" x1="88.63" y1="26.75" x2="93.08" y2="31.45"/><line class="cls-1" x1="95.14" y1="27.02" x2="99.3" y2="31.45"/><line class="cls-1" x1="100.75" y1="26.55" x2="105.31" y2="31.3"/><line class="cls-1" x1="106.77" y1="26.55" x2="110.86" y2="31.51"/><line class="cls-1" x1="112.31" y1="26.36" x2="117.3" y2="31.3"/><line class="cls-1" x1="117.04" y1="26.29" x2="121.61" y2="31.3"/><line class="cls-1" x1="122.79" y1="26.08" x2="126.99" y2="30.96"/><line class="cls-1" x1="127.56" y1="26.18" x2="131.95" y2="30.96"/><line class="cls-1" x1="132.97" y1="26.08" x2="137.62" y2="31.14"/><line class="cls-1" x1="138.36" y1="26.18" x2="142.53" y2="31.14"/><line class="cls-1" x1="142.53" y1="26.08" x2="147.01" y2="31"/><line class="cls-1" x1="147.51" y1="25.91" x2="152.23" y2="31.06"/><line class="cls-1" x1="153.37" y1="25.81" x2="158.42" y2="31.06"/><line class="cls-1" x1="158.9" y1="25.61" x2="163.98" y2="30.83"/><line class="cls-1" x1="164.58" y1="25.68" x2="168.74" y2="30.69"/><line class="cls-1" x1="170.64" y1="25.68" x2="175.52" y2="30.76"/><line class="cls-1" x1="176.89" y1="25.75" x2="181.48" y2="30.67"/><line class="cls-1" x1="184.35" y1="25.61" x2="188.46" y2="30.39"/><line class="cls-1" x1="191.69" y1="25.98" x2="195.92" y2="30.49"/><line class="cls-1" x1="197.53" y1="25.31" x2="201.89" y2="30.6"/><line class="cls-1" x1="203.14" y1="25.31" x2="207.27" y2="30.11"/><line class="cls-1" x1="209.37" y1="25.31" x2="213.98" y2="30.49"/><line class="cls-1" x1="215.2" y1="25.18" x2="219.88" y2="30.11"/><line class="cls-1" x1="220.95" y1="25.07" x2="225.5" y2="30.49"/><line class="cls-1" x1="227.5" y1="25.72" x2="231.5" y2="30.79"/><line class="cls-1" x1="234.83" y1="25.72" x2="239.19" y2="30.46"/><line class="cls-1" x1="241.73" y1="25.5" x2="245.93" y2="30.35"/><line class="cls-1" x1="248.25" y1="26.06" x2="251.91" y2="30.35"/><line class="cls-1" x1="255.07" y1="24.49" x2="258.66" y2="28.75"/><line class="cls-1" x1="271.21" y1="21.52" x2="273.58" y2="23.47"/><line class="cls-1" x1="268.29" y1="25.52" x2="272.93" y2="29.16"/><line class="cls-1" x1="267.68" y1="31.05" x2="272.38" y2="34.91"/><line class="cls-1" x1="267.51" y1="37.59" x2="271.89" y2="41.32"/><line class="cls-1" x1="268.16" y1="46.96" x2="272.09" y2="50.17"/><line class="cls-1" x1="267.79" y1="52.41" x2="272.63" y2="56.34"/><line class="cls-1" x1="267.64" y1="59.4" x2="272.12" y2="63.2"/><line class="cls-1" x1="267.62" y1="69.16" x2="272.32" y2="72.78"/><line class="cls-1" x1="267.96" y1="77.47" x2="272.43" y2="80.97"/><line class="cls-1" x1="267.82" y1="86.66" x2="271.89" y2="89.76"/><line class="cls-1" x1="267.89" y1="93.76" x2="273.04" y2="97.22"/><line class="cls-1" x1="267.71" y1="99.44" x2="272.23" y2="103.03"/><line class="cls-1" x1="267.86" y1="106.33" x2="271.98" y2="109.44"/><line class="cls-1" x1="267.66" y1="113.93" x2="273.65" y2="118.02"/><line class="cls-1" x1="268.05" y1="119.89" x2="273.65" y2="124.23"/><line class="cls-1" x1="268.47" y1="124.95" x2="273.85" y2="129.25"/><line class="cls-1" x1="268.46" y1="131.97" x2="273.82" y2="136.08"/><line class="cls-1" x1="267.92" y1="137.35" x2="273.74" y2="142.1"/><line class="cls-1" x1="268.7" y1="145" x2="274.01" y2="148.86"/><line class="cls-1" x1="267.86" y1="152.46" x2="274.01" y2="157.07"/><line class="cls-1" x1="268.06" y1="159.3" x2="273.45" y2="163.4"/><line class="cls-1" x1="267.66" y1="166.59" x2="272.56" y2="170.48"/><line class="cls-1" x1="267.98" y1="173.92" x2="273.2" y2="177.47"/><line class="cls-1" x1="268.29" y1="179.97" x2="273.69" y2="184.06"/><line class="cls-1" x1="268.02" y1="186.05" x2="273.45" y2="189.97"/><line class="cls-1" x1="268.4" y1="192.34" x2="273.11" y2="196.14"/><line class="cls-1" x1="268.57" y1="199.55" x2="273.38" y2="203.48"/><line class="cls-1" x1="267.96" y1="206.5" x2="273.31" y2="210.48"/><line class="cls-1" x1="268.09" y1="213.86" x2="273.45" y2="217.55"/><line class="cls-1" x1="267.93" y1="220.34" x2="273.15" y2="224"/><line class="cls-1" x1="268.5" y1="227.11" x2="273.74" y2="230.16"/><line class="cls-1" x1="268.61" y1="231.84" x2="274.01" y2="235.9"/><line class="cls-1" x1="268.67" y1="239.29" x2="273.88" y2="242.71"/><line class="cls-1" x1="268.09" y1="245.97" x2="273.13" y2="249.46"/><line class="cls-1" x1="268.7" y1="252.01" x2="274.12" y2="255.57"/><line class="cls-1" x1="267.96" y1="258.84" x2="274.39" y2="263.18"/><line class="cls-1" x1="268.16" y1="264.68" x2="274.01" y2="269.45"/><line class="cls-1" x1="268.43" y1="271.29" x2="273.38" y2="274.34"/><line class="cls-1" x1="268.63" y1="277.07" x2="273.96" y2="280.86"/><line class="cls-1" x1="269.11" y1="283.1" x2="273.96" y2="286.41"/><line class="cls-1" x1="269.35" y1="289.73" x2="274.03" y2="292.51"/><line class="cls-1" x1="269.72" y1="296.82" x2="274.22" y2="300.03"/><line class="cls-1" x1="269.45" y1="301.78" x2="273.95" y2="305.23"/><line class="cls-1" x1="268.95" y1="307.85" x2="273.85" y2="310.86"/><line class="cls-1" x1="269.31" y1="314.8" x2="274.35" y2="318.35"/><line class="cls-1" x1="265.12" y1="32.05" x2="260.37" y2="36.17"/><line class="cls-1" x1="265.12" y1="36.3" x2="259.84" y2="41.12"/><line class="cls-1" x1="264.34" y1="43.64" x2="260.68" y2="47.09"/><line class="cls-1" x1="264.4" y1="50.47" x2="260.83" y2="53.56"/><line class="cls-1" x1="263.52" y1="57.42" x2="260.24" y2="60.68"/><line class="cls-1" x1="265.08" y1="62.78" x2="260.58" y2="67.11"/><line class="cls-1" x1="264.88" y1="68.36" x2="260.58" y2="72.78"/><line class="cls-1" x1="264.64" y1="75.38" x2="260.31" y2="79.58"/><line class="cls-1" x1="265.35" y1="81.59" x2="260.58" y2="86.43"/><line class="cls-1" x1="265.76" y1="87.16" x2="260.83" y2="91.9"/><line class="cls-1" x1="265.29" y1="94.33" x2="260.27" y2="99.03"/><line class="cls-1" x1="265.29" y1="99.58" x2="260.04" y2="104.59"/><line class="cls-1" x1="265.83" y1="104.24" x2="260.18" y2="109.8"/><line class="cls-1" x1="265.49" y1="110.93" x2="260.95" y2="115.41"/><line class="cls-1" x1="265.38" y1="118.81" x2="260.11" y2="123.05"/><line class="cls-1" x1="265.72" y1="124.11" x2="260.47" y2="128.99"/><line class="cls-1" x1="265.42" y1="130.83" x2="260.99" y2="135.03"/><line class="cls-1" x1="265.35" y1="137.83" x2="261.08" y2="141.76"/><line class="cls-1" x1="265.65" y1="144.37" x2="261.25" y2="147.94"/><path class="cls-1" d="M398.73,310.73c0,.07-3.79,3.2-3.79,3.2" transform="translate(-133.89 -159.28)"/><path class="cls-1" d="M400,317s-4.3,4-4.3,4" transform="translate(-133.89 -159.28)"/><line class="cls-1" x1="265.73" y1="164.97" x2="261.02" y2="168.59"/><line class="cls-1" x1="266.78" y1="171.1" x2="261.19" y2="175.19"/><line class="cls-1" x1="265.83" y1="178.14" x2="261.56" y2="181.77"/><line class="cls-1" x1="265.9" y1="184.24" x2="261.08" y2="188.3"/><line class="cls-1" x1="266.3" y1="192.48" x2="262.03" y2="195.59"/><line class="cls-1" x1="266.44" y1="198.75" x2="261.31" y2="202.93"/><line class="cls-1" x1="265.72" y1="206.29" x2="261.49" y2="209.58"/><line class="cls-1" x1="266.06" y1="211.6" x2="262.3" y2="214.42"/><line class="cls-1" x1="266.07" y1="217.84" x2="262.13" y2="220.64"/><line class="cls-1" x1="265.45" y1="224" x2="261.83" y2="227.04"/><line class="cls-1" x1="266.17" y1="232.77" x2="262.57" y2="235.1"/><line class="cls-1" x1="261.4" y1="234.05" x2="262.03" y2="234.72"/><line class="cls-1" x1="266.34" y1="237.83" x2="261.96" y2="241.05"/><path class="cls-1" d="M399.81,403.51s-4,2.87-4.05,2.87" transform="translate(-133.89 -159.28)"/><line class="cls-1" x1="266.17" y1="250.11" x2="261.42" y2="253.73"/><path class="cls-1" d="M400.19,415.77s-3.95,3-3.86,3" transform="translate(-133.89 -159.28)"/><line class="cls-1" x1="266.3" y1="264.16" x2="262.62" y2="267.21"/><line class="cls-1" x1="264.85" y1="271.85" x2="261.02" y2="275.1"/><line class="cls-1" x1="266.6" y1="277.62" x2="262.68" y2="281.01"/><line class="cls-1" x1="266.4" y1="284.32" x2="261.96" y2="287.84"/><line class="cls-1" x1="264.99" y1="293.35" x2="261.69" y2="296.57"/><line class="cls-1" x1="266.82" y1="297.2" x2="262.57" y2="301.03"/><line class="cls-1" x1="266.82" y1="302.92" x2="262.17" y2="307.12"/><line class="cls-1" x1="266.71" y1="311.31" x2="262.89" y2="314.04"/><line class="cls-1" x1="260.83" y1="319.09" x2="267.24" y2="323.23"/><line class="cls-1" x1="252.72" y1="318.83" x2="258.52" y2="322.58"/><line class="cls-1" x1="260.19" y1="314.32" x2="257.51" y2="317.39"/><line class="cls-1" x1="254.12" y1="313.91" x2="250.95" y2="317.6"/><line class="cls-1" x1="246.39" y1="313.98" x2="243.42" y2="317.76"/><line class="cls-1" x1="240.09" y1="314.21" x2="238.03" y2="317.28"/><line class="cls-1" x1="233.88" y1="314.11" x2="231.55" y2="316.94"/><line class="cls-1" x1="225.61" y1="314.11" x2="223.73" y2="316.55"/><line class="cls-1" x1="216.68" y1="314.27" x2="215.37" y2="316.42"/><line class="cls-1" x1="210.38" y1="314.38" x2="208.51" y2="316.69"/><line class="cls-1" x1="204.32" y1="314.48" x2="201.62" y2="317.83"/><line class="cls-1" x1="197.99" y1="315.29" x2="195.59" y2="318.25"/><line class="cls-1" x1="190.1" y1="314.6" x2="187.63" y2="318.83"/><line class="cls-1" x1="181.14" y1="314.91" x2="178.84" y2="319.07"/><line class="cls-1" x1="171.73" y1="315.41" x2="169.47" y2="319.25"/><line class="cls-1" x1="164.46" y1="316.2" x2="161.91" y2="320.63"/><line class="cls-1" x1="157.98" y1="315.66" x2="155.65" y2="319.89"/><line class="cls-1" x1="152.11" y1="315.91" x2="149.8" y2="319.71"/><line class="cls-1" x1="145.64" y1="315.66" x2="143.54" y2="320.02"/><line class="cls-1" x1="138.64" y1="316.06" x2="137.23" y2="319.1"/><line class="cls-1" x1="132.62" y1="316.13" x2="131.09" y2="318.9"/><line class="cls-1" x1="126.75" y1="316.43" x2="125.16" y2="318.96"/><line class="cls-1" x1="119.69" y1="316.23" x2="118.02" y2="319.14"/><line class="cls-1" x1="113.93" y1="316.43" x2="112.73" y2="318.49"/><line class="cls-1" x1="108.78" y1="316.43" x2="107.56" y2="318.49"/><line class="cls-1" x1="101.84" y1="316.63" x2="100.82" y2="318.26"/><line class="cls-1" x1="95" y1="316.47" x2="94.33" y2="318.03"/><line class="cls-1" x1="88.96" y1="316.47" x2="87.85" y2="318.16"/><line class="cls-1" x1="83.23" y1="316.69" x2="82.39" y2="318.1"/><line class="cls-1" x1="75.11" y1="316.69" x2="73.89" y2="318.27"/><line class="cls-1" x1="68.26" y1="316.84" x2="67.18" y2="318.14"/><line class="cls-1" x1="61.69" y1="316.94" x2="60.71" y2="318.23"/><line class="cls-1" x1="54.11" y1="316.94" x2="52.09" y2="318.98"/><line class="cls-1" x1="46.62" y1="317.08" x2="45.07" y2="319.93"/><line class="cls-1" x1="41.23" y1="317.46" x2="39.24" y2="320.52"/><line class="cls-1" x1="35.91" y1="317.8" x2="33.74" y2="321.42"/><line class="cls-1" x1="34.77" y1="316.84" x2="27.72" y2="323.27"/><line class="cls-1" x1="28.26" y1="32.24" x2="30.47" y2="34.79"/><path class="cls-1" d="M160.14,194.54s4.29,5.8,4.33,5.8" transform="translate(-133.89 -159.28)"/><line class="cls-1" x1="26.24" y1="41.98" x2="30.81" y2="48.22"/><line class="cls-1" x1="25.9" y1="49.88" x2="30.9" y2="56.86"/><line class="cls-1" x1="25.78" y1="57.88" x2="30.9" y2="65.18"/><line class="cls-1" x1="26.35" y1="67.24" x2="31.03" y2="71.46"/><path class="cls-1" d="M160,233.09s5.07,4.53,5.11,4.53" transform="translate(-133.89 -159.28)"/><line class="cls-1" x1="26.19" y1="81.02" x2="31.77" y2="86.63"/><path class="cls-1" d="M160.66,248.12s4.46,4.53,4.6,4.57" transform="translate(-133.89 -159.28)"/><line class="cls-1" x1="26.87" y1="94.74" x2="31.41" y2="99.24"/><line class="cls-1" x1="26.64" y1="103.32" x2="31.41" y2="107.11"/><line class="cls-1" x1="27.07" y1="110.12" x2="31.61" y2="114.65"/><line class="cls-1" x1="27.34" y1="117.44" x2="31.79" y2="121.91"/><line class="cls-1" x1="27.41" y1="123.97" x2="31.98" y2="128.13"/><line class="cls-1" x1="27.59" y1="130.25" x2="32.09" y2="134.78"/><line class="cls-1" x1="27.41" y1="136.89" x2="32.09" y2="140.93"/><line class="cls-1" x1="27.41" y1="144.11" x2="32.15" y2="147.61"/><line class="cls-1" x1="27.11" y1="150.01" x2="32.47" y2="154.48"/><line class="cls-1" x1="27.27" y1="156.46" x2="32.11" y2="160.45"/><line class="cls-1" x1="27.59" y1="162.77" x2="32.36" y2="167.01"/><line class="cls-1" x1="27.34" y1="168.99" x2="32.22" y2="173.19"/><line class="cls-1" x1="27.79" y1="175.36" x2="32.36" y2="178.77"/><line class="cls-1" x1="27.45" y1="180.79" x2="32.56" y2="184.61"/><line class="cls-1" x1="27.61" y1="186.62" x2="32.56" y2="190.62"/><line class="cls-1" x1="28.15" y1="192.88" x2="32.56" y2="196.26"/><path class="cls-1" d="M162.28,358.51s4,3,4.08,3" transform="translate(-133.89 -159.28)"/><line class="cls-1" x1="27.98" y1="204.54" x2="32.7" y2="207.97"/><line class="cls-1" x1="27.48" y1="210" x2="32.36" y2="213.21"/><line class="cls-1" x1="27.75" y1="216.82" x2="32.72" y2="220.21"/><line class="cls-1" x1="27.54" y1="223.3" x2="30.69" y2="225.81"/><line class="cls-1" x1="27.18" y1="228.61" x2="33.26" y2="233.25"/><line class="cls-1" x1="28.76" y1="233.99" x2="33.58" y2="237.03"/><line class="cls-1" x1="28.6" y1="239.81" x2="32.53" y2="242.04"/><line class="cls-1" x1="28.63" y1="246.31" x2="33.85" y2="249.59"/><line class="cls-1" x1="28.52" y1="251.8" x2="32.99" y2="254.31"/><line class="cls-1" x1="28.22" y1="256" x2="32.7" y2="259.01"/><line class="cls-1" x1="28.53" y1="261.67" x2="32.76" y2="264.64"/><line class="cls-1" x1="28.86" y1="266.82" x2="33.33" y2="269.49"/><line class="cls-1" x1="28.09" y1="272.04" x2="33.33" y2="275.32"/><line class="cls-1" x1="28.09" y1="277.88" x2="33.2" y2="281.39"/><line class="cls-1" x1="28.26" y1="285.05" x2="33.94" y2="288.64"/><line class="cls-1" x1="28.33" y1="291.45" x2="32.99" y2="294.12"/><line class="cls-1" x1="29.44" y1="298.23" x2="33.41" y2="300.63"/><path class="cls-1" d="M162.34,463.8l5.44,3.11" transform="translate(-133.89 -159.28)"/><line class="cls-1" x1="28.63" y1="309.16" x2="33.71" y2="312.27"/><line class="cls-1" x1="29.31" y1="315.56" x2="32.47" y2="317.46"/><line class="cls-1" x1="21.51" y1="26.6" x2="19.44" y2="27.51"/><line class="cls-1" x1="23.34" y1="30.3" x2="19.72" y2="31.63"/><line class="cls-1" x1="23.1" y1="35.26" x2="18.87" y2="36.79"/><line class="cls-1" x1="23.59" y1="39.76" x2="19.86" y2="41.06"/><line class="cls-1" x1="23.1" y1="44.53" x2="19.19" y2="45.72"/><line class="cls-1" x1="23.38" y1="49.99" x2="20.36" y2="51.23"/><line class="cls-1" x1="23.3" y1="54.47" x2="19.93" y2="55.86"/><line class="cls-1" x1="23.3" y1="58.71" x2="19.72" y2="60.07"/><line class="cls-1" x1="22.96" y1="64.36" x2="19.52" y2="65.95"/><line class="cls-1" x1="21.92" y1="70.26" x2="19.71" y2="71.46"/><path class="cls-1" d="M158.5,233.84l-5.42,1.62" transform="translate(-133.89 -159.28)"/><line class="cls-1" x1="24.02" y1="81.2" x2="19.62" y2="82.33"/><line class="cls-1" x1="24.39" y1="85.99" x2="19.44" y2="87.76"/><line class="cls-1" x1="24.66" y1="92.09" x2="19.59" y2="94.02"/><line class="cls-1" x1="23.82" y1="96.77" x2="20.24" y2="97.95"/><line class="cls-1" x1="24.09" y1="103" x2="19.64" y2="104.16"/><line class="cls-1" x1="23.68" y1="108.2" x2="19.64" y2="109.55"/><line class="cls-1" x1="23.99" y1="113.58" x2="19.72" y2="114.93"/><line class="cls-1" x1="24.74" y1="121.32" x2="21.13" y2="122.7"/><line class="cls-1" x1="24.67" y1="127.21" x2="19.86" y2="128.64"/><line class="cls-1" x1="25.17" y1="130.37" x2="19.62" y2="132.61"/><line class="cls-1" x1="25.11" y1="135.64" x2="21.65" y2="136.89"/><path class="cls-1" d="M159.43,299.94a10,10,0,0,1-2.37,1,11.79,11.79,0,0,1-2.29.11" transform="translate(-133.89 -159.28)"/><line class="cls-1" x1="24.79" y1="145.01" x2="19.59" y2="147.1"/><line class="cls-1" x1="24.67" y1="152.32" x2="20.94" y2="153.6"/><line class="cls-1" x1="25.51" y1="159.01" x2="20.94" y2="160.8"/><line class="cls-1" x1="25.31" y1="164.89" x2="21.13" y2="165.88"/><line class="cls-1" x1="25.51" y1="169.92" x2="20.09" y2="171.87"/><line class="cls-1" x1="24.25" y1="175.98" x2="20.16" y2="177.7"/><path class="cls-1" d="M159.09,339.6s-4.71,1.54-4.67,1.54" transform="translate(-133.89 -159.28)"/><line class="cls-1" x1="25.4" y1="184.55" x2="21.42" y2="185.83"/><line class="cls-1" x1="25.92" y1="188.88" x2="20.36" y2="191.08"/><line class="cls-1" x1="26.05" y1="194.13" x2="19.89" y2="196.34"/><line class="cls-1" x1="25.92" y1="198.36" x2="21.68" y2="200.01"/><line class="cls-1" x1="26.05" y1="202.45" x2="20.24" y2="204.69"/><path class="cls-1" d="M159.16,366.48s-3.63,1.12-3.58,1.15" transform="translate(-133.89 -159.28)"/><path class="cls-1" d="M159.7,372.31s-5.24,1.57-5.18,1.61" transform="translate(-133.89 -159.28)"/><line class="cls-1" x1="25.65" y1="218.68" x2="20.94" y2="220.8"/><line class="cls-1" x1="25.71" y1="225.1" x2="22.12" y2="226.73"/><line class="cls-1" x1="25.71" y1="229.02" x2="20.5" y2="231.01"/><line class="cls-1" x1="25.04" y1="234.83" x2="21.11" y2="236.12"/><line class="cls-1" x1="26.26" y1="240.32" x2="20.97" y2="242.63"/><path class="cls-1" d="M158.7,405.59s-4,1.54-3.93,1.58" transform="translate(-133.89 -159.28)"/><line class="cls-1" x1="24.7" y1="251.59" x2="20.93" y2="252.97"/><line class="cls-1" x1="24.47" y1="255.94" x2="20.79" y2="257.37"/><line class="cls-1" x1="25.24" y1="261.49" x2="20.97" y2="263.09"/><path class="cls-1" d="M160,426a2.84,2.84,0,0,1-2.61.54,2.93,2.93,0,0,0-2.54.38" transform="translate(-133.89 -159.28)"/><line class="cls-1" x1="25.17" y1="271.2" x2="20.84" y2="273.26"/><line class="cls-1" x1="26.12" y1="275.6" x2="21.85" y2="277.66"/><path class="cls-1" d="M160,440.33s-5.23,1.82-5.19,1.86" transform="translate(-133.89 -159.28)"/><line class="cls-1" x1="22.12" y1="288.49" x2="26.32" y2="286.33"/><line class="cls-1" x1="26.32" y1="291.52" x2="21.31" y2="293.79"/><line class="cls-1" x1="25.92" y1="296.98" x2="20.63" y2="299.28"/><line class="cls-1" x1="26.56" y1="302.24" x2="21.07" y2="304.31"/><path class="cls-1" d="M160.45,465.84s-5.48,2.21-5.38,2.24" transform="translate(-133.89 -159.28)"/><path class="cls-1" d="M160.45,471.09s-5.34,1.75-5.32,1.79" transform="translate(-133.89 -159.28)"/><path class="cls-1" d="M145.58,315.12a39,39,0,0,1-2.46,7.59,7.94,7.94,0,0,0-.72,2.89c-.06.91-.13,2.06.65,2.71a2,2,0,0,0,1.81.36c1.06-.29,1.55-1.45,1.8-2.06C148.07,323.27,145.92,316.23,145.58,315.12Z" transform="translate(-133.89 -159.28)"/><path class="cls-1" d="M146.19,353.11c1.29-.18.9-7.46,1.63-11.57a5.76,5.76,0,0,0,0-2,3.69,3.69,0,0,0-.8-1.88,2.53,2.53,0,0,0-1.91-1,2.32,2.32,0,0,0-1.52,1.09C141.58,340.54,144.47,353.35,146.19,353.11Z" transform="translate(-133.89 -159.28)"/><path class="cls-1" d="M414.55,314.31a14.21,14.21,0,0,0-.56,2,19.8,19.8,0,0,0-.53,4c-.25,3.82.36,4.07.5,4.29.45.72,1.19.49,1.56-.5a5.86,5.86,0,0,0,0-3.79C415.26,319,414.87,316.91,414.55,314.31Z" transform="translate(-133.89 -159.28)"/><path class="cls-1" d="M414.28,346.22c-.66-.14.15-2.69-.18-6.94a5.71,5.71,0,0,1,.36-3.3c.17-.35.52-1.05,1.08-1.09s1.06.67,1.18.85a4,4,0,0,1,.38,2.89C416.62,341.23,415.11,346.41,414.28,346.22Z" transform="translate(-133.89 -159.28)"/><path class="cls-1" d="M146,161a39.7,39.7,0,0,1,6.88,0c1,.09,1.18.15,4,.54,6.44.93,7,.84,10.41,1.47,2.51.47,2.42.56,4.77,1,0,0,3.25.57,7.16.93,8.11.73,24.4.43,24.4.43,8.79-.15,5.72.14,19.54.05,16-.1,24-.75,28.52-1,3.44-.19,3.81-.08,8.86-.64.7-.07,6.74-1,9.27-1.39a51.46,51.46,0,0,0,5.4-1.18c7.8-1.74,11-1.29,11.92-1.24a54.51,54.51,0,0,1,11.31,2.24,78.92,78.92,0,0,0,11,2.17c4.63.22,6.62.86,12.09.41,3.4-.29,1.92.11,16,0,9.1-.05,7.36-.16,13.88-.06,9,.14,12.27.56,18.71-.13,1.68-.18,2.06-.28,5.61-.68,6-.68,7.9-.75,11.76-1.17,7-.75,5.94-1.1,12.74-1.84a86.06,86.06,0,0,1,9.6-.54c.83-.05,1.88-.08,4.2-.38,1.25-.16,1.56-.21,2.71-.31a17.49,17.49,0,0,1,2.85-.12,5,5,0,0,1,1.72.43,8.77,8.77,0,0,1,1.18.68,12.42,12.42,0,0,1,2.67,2.78l.13.19h0a6.29,6.29,0,0,1,.44.74c2.37,4.77-.25,12.26-1.27,15.06-.18.5-.72,1.94-1.4,4-.42,1.29-.65,2-.95,3-.45,1.59-.56,2.22-1.22,4.6-.28,1-.28.94-.42,1.44a51.52,51.52,0,0,0-1,5.18c-.54,3.56-.81,6.34-.89,7.24-.13,1.38-.41,4.6-.54,9.6-.12,4-.07,6.8-.06,8.78.06,8.37-.36,9.33-.49,18.54,0,1.27.05,6.89.19,18.14.15,11.7.18,12.62.08,15.4-.16,5-.43,7-.46,12.71,0,5.44.19,8.51.33,10.22a41.43,41.43,0,0,0,1.81,10.65c1.05,3.11,1.63,3.23,2.93,6.37a39.73,39.73,0,0,1,2.9,14.21,43.86,43.86,0,0,1-1.41,12.85c-1.39,5.19-2.84,6.59-4.33,12.87a61.51,61.51,0,0,0-1.29,7.68c-.66,5.42-.43,7.36-.75,22.2-.07,3.24-.11,4.9-.17,6.49-.17,4.8-.35,6.59-.31,11.21,0,2.25.07,6.39.18,10.82.1,3.81.15,5.72.22,7.23.28,5.74.68,8.33.9,15.32,0,1,0,.81,0,1.42a126.76,126.76,0,0,0,1.28,13.07c.34,2.35.65,4.25.82,7.22.05,1,.07,1.78.08,2.06.14,4.62,1.67,10.38,2.93,15.59,1.35,5.63,2.14,9.6,2.14,14.34a9.65,9.65,0,0,1-1.79,6.29,7.08,7.08,0,0,1-4.42,2.68c-4.27.55-7.4-4.11-7.92-4.88-.15-.23-3.39-5.2-1.43-9.75a5,5,0,0,1,7.75-2.31c2.8,2.05,2.76,7,.95,8.24a2.88,2.88,0,0,1-3,0,3.1,3.1,0,0,1-1.35-2.17" transform="translate(-133.89 -159.28)"/><path class="cls-1" d="M415.47,171.12a1.86,1.86,0,0,1,2-1.73c1.17.12,1.56,2,1.59,2.2.42,2-.81,5-3.3,5.56a4.32,4.32,0,0,1-4-1.18,4.26,4.26,0,0,1-1-1.94,14.92,14.92,0,0,1,.21-8.15,13.85,13.85,0,0,1,4.32-6.07" transform="translate(-133.89 -159.28)"/><path class="cls-1" d="M145.67,171a.86.86,0,0,0,0-.36,1.85,1.85,0,0,0-1.49-1.35c-1.1-.15-2.22,1.29-2.67,2.4-.87,2.11-.23,5.22,2,6.45a4.34,4.34,0,0,0,3,.46c2.89-.64,4-4.35,4.38-5.42.18-.6,1.69-5.72-1.54-9.78a7.88,7.88,0,0,0-5-3.2c-3.51-.46-6.18,2.17-6.63,2.62-3.78,3.73-2.08,10.76-.94,15.92.73,3.36,1.51,4.75,2.87,11,.61,2.78.92,4.67,1,5.1a91.59,91.59,0,0,1,1.12,10.28c1,15.46,1,14.38,1,15.52.54,12.56.86,20,.81,30.47,0,6.15-.23,13.91-.72,24.06-.57,11.89-.58,16.53-1.08,23.16a21.74,21.74,0,0,1-.28,3.25,63.93,63.93,0,0,1-3,12.53,70.68,70.68,0,0,0-3.71,13.1,45.16,45.16,0,0,0-.41,10.32c.34,4.6,1.44,8,3.37,14.08,2,6.28,1.92,5.45,2.63,8.51.26,1.15,1.24,3.17,1.93,15.08.22,3.78.8,12.18,1,14.42.41,6,.2,3.63.4,5.45.4,3.6.05,2.65-.08,16.34-.06,6.71-.12,15.95-.49,27.15a72.61,72.61,0,0,1-1.19,11.94c-.7,3.73-1.06,3.9-1.75,7.59-1.12,6-.69,8.22-1.36,13.31-.38,2.95-.86,3.1-2.94,12a23.84,23.84,0,0,0-.85,4.45c-.1,1.69-.42,7,3.2,10.9.82.89,3.46,3.73,6.92,3.47,4.86-.37,7.27-6.55,7.95-8.32.79-2,1.88-4.85.51-7.26a6.88,6.88,0,0,0-4.57-3.29l-.15,0c-1.86-.22-4.63.5-5.82,2.71-.93,1.72-1.07,4.64.78,5.88a3.73,3.73,0,0,0,4.59-.49c1.08-1.18,1.3-3.32.36-4.07a1.7,1.7,0,0,0-1.3-.27" transform="translate(-133.89 -159.28)"/><path class="cls-1" d="M161.14,482.52" transform="translate(-133.89 -159.28)"/><path class="cls-1" d="M154.6,483.08" transform="translate(-133.89 -159.28)"/><path class="cls-1" d="M148.55,483.28l4.14-.15c1.7-.05,4.29-.16,7.45-.44,4.46-.4,7.47-.92,14.64-2.14,8.71-1.48,13.08-2.22,14.39-2.35,4.32-.42,6.14-.25,14.17-.18,15.08.15,15.47-.38,26.93-.09,6.47.17,5.1.3,15.72.71,16.69.64,15.68.14,24.94.68,11.85.69,14.55,1.57,23.5,1.24,2.92-.1,2.25-.18,11.66-.95,17.33-1.4,16.66-.89,25.8-1.84,8.44-.88,10.81-1.5,17.52-1.63,4.27-.08,7.38.1,10.95.3,8.56.49,14.37.85,21.52,2.9,4.25,1.22,4.07,1.63,7.46,2.58a44.53,44.53,0,0,0,20.08.76l1.93-.49" transform="translate(-133.89 -159.28)"/><path class="cls-1" d="M414.28,160.67" transform="translate(-133.89 -159.28)"/><path class="cls-1" d="M148,502.66" transform="translate(-133.89 -159.28)"/><path class="cls-1" d="M146,502a7.29,7.29,0,0,0,1.49.37,8.37,8.37,0,0,0,3.61-.4s1.08-.3,4.47-1.2c1.14-.3,1.51-.32,6.63-.95,2.51-.3,4.84-.6,6.16-.77,5.73-.73,5.64-.8,7.21-.91,3.27-.22,3.79.05,7.13-.1s4.7-.51,7.53-.85A82.25,82.25,0,0,1,204.5,497c6,.27,6.21.74,11.61.83,4.53.07,6-.23,10.06-.31,6.89-.15,9.14.58,15.18.9,10.54.57,11.11-1.25,24.21-1.34,6.72,0,6,.44,16.54.76,9.89.3,17.39.08,23.53-.11,15.95-.49,14.57-1.21,28.33-1.62,1.27,0,11.41.15,31.63.54,5.59.11,9.17.2,14,1.37,5.79,1.42,6.88,2.82,12.83,4a47.08,47.08,0,0,0,13.12.68,45.56,45.56,0,0,0,12.58-3l1.69-.83" transform="translate(-133.89 -159.28)"/><path class="cls-1" d="M146.13,178.6l4.42.27,1.59.11c2.55.17,7.77.52,12.71.92,8.38.68,13.59,1.37,19,1.93a295.18,295.18,0,0,0,29.71,1.73c1.2,0,11.76-.58,32.82-1.76,10.23-.57,13.22-.74,18-1.16,8.74-.77,10.53-1.23,15.75-1.41,7-.25,9.63.38,18.9,1,3.82.26,14.68,1,26.92.62,7-.21,6.38-.54,24.29-1.84,9.82-.72,15.5-1.13,22.12-1.39,11.43-.44,16,.57,29.79.14,4.41-.14,8-.35,10.28-.5l2.58,0" transform="translate(-133.89 -159.28)"/><line class="cls-1" x1="20.36" y1="323.8" x2="18.01" y2="19.68"/><line class="cls-1" x1="274.77" y1="18.23" x2="275.27" y2="323.44"/><polygon class="cls-1" points="32.47 32.84 258.54 31.3 260.83 313.01 34.77 316.84 32.47 32.84"/><polyline class="cls-1" points="240.56 318.41 267.37 318.17 266.84 23.47 25.04 26.77 27.72 323.35"/><line class="cls-1" x1="32.47" y1="32.84" x2="18.02" y2="20.91"/><path class="cls-1" d="M158.83,186.63" transform="translate(-133.89 -159.28)"/><line class="cls-1" x1="258.54" y1="31.3" x2="272.38" y2="18.35"/><polyline class="cls-1" points="260.83 313.01 261.9 313.76 273.85 323.44"/></svg>